<?xml version="1.0" standalone="no"?>
<!DOCTYPE svg PUBLIC "-//W3C//DTD SVG 20010904//EN"
 "http://www.w3.org/TR/2001/REC-SVG-20010904/DTD/svg10.dtd">
<svg version="1.0" xmlns="http://www.w3.org/2000/svg"
 width="500.000000pt" height="500.000000pt" viewBox="0 0 500.000000 500.000000"
 preserveAspectRatio="xMidYMid meet">

<g transform="translate(0.000000,500.000000) scale(0.100000,-0.100000)"
fill="#000000" stroke="none">
<path d="M2217 4384 c-13 -13 -7 -24 14 -24 11 0 19 5 17 12 -5 14 -22 21 -31
12z"/>
<path d="M2360 4380 c0 -5 7 -7 15 -4 8 4 15 8 15 10 0 2 -7 4 -15 4 -8 0 -15
-4 -15 -10z"/>
<path d="M2508 4383 c6 -2 18 -2 25 0 6 3 1 5 -13 5 -14 0 -19 -2 -12 -5z"/>
<path d="M2658 4373 c7 -3 16 -2 19 1 4 3 -2 6 -13 5 -11 0 -14 -3 -6 -6z"/>
<path d="M2074 4359 c-3 -6 -2 -15 2 -19 12 -12 38 5 30 19 -9 14 -23 14 -32
0z"/>
<path d="M1934 4329 c-8 -14 11 -33 25 -25 6 4 11 14 11 22 0 16 -26 19 -36 3z"/>
<path d="M1797 4294 c-9 -10 4 -34 19 -34 8 0 14 9 14 20 0 19 -19 27 -33 14z"/>
<path d="M2261 4283 c-51 -3 -61 -6 -48 -16 21 -17 43 -253 25 -275 -11 -13
-10 -15 12 -9 14 4 40 7 59 7 30 0 33 2 19 13 -20 15 -44 245 -28 261 19 19
64 -7 74 -41 10 -36 -12 -83 -39 -83 -9 0 -1 -20 26 -60 31 -47 47 -62 78 -71
22 -6 47 -9 57 -5 16 6 16 8 -3 21 -11 7 -37 35 -57 60 l-38 46 21 23 c27 29
28 86 2 110 -22 20 -66 25 -160 19z"/>
<path d="M2670 4252 c0 -54 -40 -237 -54 -248 -11 -7 10 -14 85 -27 55 -10
104 -15 109 -12 4 3 13 19 19 37 l11 32 -23 -22 c-17 -16 -36 -22 -70 -22 -25
0 -48 3 -50 8 -2 4 1 31 6 61 l9 53 36 -6 c20 -3 38 -10 40 -16 7 -19 22 -10
22 13 0 19 -5 22 -40 22 -21 1 -42 3 -45 6 -6 7 5 93 14 108 13 20 84 -1 98
-29 l13 -25 0 28 c0 15 0 30 0 34 0 3 -14 8 -32 10 -18 1 -55 7 -81 13 -66 14
-67 14 -67 -18z"/>
<path d="M1662 4233 c2 -10 10 -18 18 -18 8 0 16 8 18 18 2 12 -3 17 -18 17
-15 0 -20 -5 -18 -17z"/>
<path d="M1537 4194 c-14 -14 -7 -35 11 -32 9 2 17 10 17 17 0 16 -18 25 -28
15z"/>
<path d="M3057 4166 c5 -24 -91 -236 -107 -236 -20 0 -9 -18 18 -28 15 -5 35
-13 45 -17 13 -5 16 -3 12 7 -8 19 94 238 110 238 19 0 45 -34 45 -59 0 -34
-46 -74 -78 -68 l-27 5 28 -24 c38 -32 72 -31 108 5 37 37 39 83 5 114 -13 12
-55 36 -93 53 -67 29 -69 30 -66 10z"/>
<path d="M1757 4130 c-16 -10 -24 -19 -17 -22 8 -2 8 -20 1 -68 -17 -105 -18
-103 48 -135 33 -15 73 -28 90 -27 33 1 98 31 69 32 -33 0 -188 78 -188 94 0
29 22 121 32 134 15 17 -2 14 -35 -8z"/>
<path d="M1404 4119 c-8 -14 11 -33 25 -25 6 4 11 14 11 22 0 16 -26 19 -36 3z"/>
<path d="M1606 4046 c-25 -15 -34 -25 -24 -28 16 -7 128 -208 128 -231 0 -15
5 -14 45 5 41 20 43 23 25 35 -18 13 -119 188 -130 225 -5 16 -8 16 -44 -6z"/>
<path d="M1287 4054 c-14 -15 -6 -34 14 -34 14 0 19 5 17 17 -3 18 -20 27 -31
17z"/>
<path d="M1164 3959 c-8 -14 11 -33 25 -25 6 4 11 14 11 22 0 16 -26 19 -36 3z"/>
<path d="M3705 3940 c3 -5 11 -10 16 -10 6 0 7 5 4 10 -3 6 -11 10 -16 10 -6
0 -7 -4 -4 -10z"/>
<path d="M3425 3869 c-44 -22 -108 -53 -143 -68 -61 -27 -62 -28 -42 -46 11
-10 20 -13 20 -7 0 6 14 19 30 27 29 15 33 15 59 -4 47 -33 53 -45 41 -77 -6
-16 -16 -31 -21 -35 -6 -3 10 -22 34 -42 41 -33 44 -34 40 -13 -4 20 11 80 66
274 5 17 7 32 3 31 -4 0 -43 -18 -87 -40z m-1 -72 c-13 -39 -19 -45 -33 -37
-20 10 -46 39 -40 44 8 7 84 44 86 42 2 -2 -4 -24 -13 -49z"/>
<path d="M1054 3869 c-8 -14 11 -33 25 -25 6 4 11 14 11 22 0 16 -26 19 -36 3z"/>
<path d="M1338 3840 c-97 -85 -104 -181 -18 -253 17 -15 46 -29 66 -33 118
-22 255 145 166 204 l-23 15 17 -35 c42 -89 -53 -171 -144 -124 -39 20 -81 68
-91 102 -20 71 37 140 108 130 33 -5 33 -5 16 14 -26 29 -47 25 -97 -20z"/>
<path d="M1180 3849 c0 -5 5 -7 10 -4 6 3 10 8 10 11 0 2 -4 4 -10 4 -5 0 -10
-5 -10 -11z"/>
<path d="M3810 3851 c0 -5 5 -13 10 -16 6 -3 10 -2 10 4 0 5 -4 13 -10 16 -5
3 -10 2 -10 -4z"/>
<path d="M2364 3810 c-520 -54 -964 -415 -1123 -912 -35 -110 -61 -255 -61
-340 l0 -58 -211 0 -211 0 5 -207 c4 -158 10 -231 26 -305 77 -357 266 -682
526 -910 353 -310 793 -457 1251 -419 832 70 1495 754 1531 1582 3 69 3 155
-1 192 l-8 67 -134 0 c-155 0 -139 -14 -149 131 -19 277 -150 560 -358 776
-244 254 -543 390 -892 406 -60 3 -146 2 -191 -3z m149 -72 c3 -23 -2 -46 -19
-77 -13 -24 -24 -52 -24 -62 0 -29 -47 -26 -56 4 -4 12 -17 36 -30 53 -15 19
-24 44 -24 67 0 33 3 37 25 37 19 0 25 -5 25 -23 0 -13 7 -32 15 -43 13 -16
16 -17 25 -4 5 8 10 30 10 48 0 27 4 32 24 32 19 0 25 -6 29 -32z m200 15 c31
-5 38 -9 35 -27 -3 -18 -9 -21 -41 -19 -47 3 -48 -9 -2 -26 32 -11 35 -16 35
-50 0 -53 -17 -65 -85 -56 -59 7 -69 14 -59 40 5 13 15 15 45 10 48 -8 52 8 7
21 -29 8 -33 14 -36 48 -5 62 15 74 101 59z m-390 -24 c4 -16 0 -23 -15 -27
-21 -5 -22 -22 -3 -108 6 -27 4 -32 -16 -37 -32 -8 -35 -5 -49 64 -12 55 -15
60 -36 56 -17 -3 -25 1 -30 15 -8 25 -5 28 58 43 75 18 85 18 91 -6z m569 -21
c27 -8 37 -16 33 -26 -3 -7 -5 -18 -5 -23 0 -6 -9 -8 -20 -5 -11 3 -29 8 -39
11 -16 5 -22 -1 -30 -31 -12 -45 -9 -51 30 -59 25 -6 29 -10 23 -28 -3 -12 -7
-23 -8 -24 -6 -8 -88 23 -102 39 -16 17 -16 24 -5 66 24 91 44 104 123 80z
m-752 -19 c9 -16 8 -23 -3 -32 -14 -11 -14 -16 -1 -48 11 -27 20 -36 33 -32
12 3 20 -2 24 -16 6 -23 -7 -33 -73 -56 -37 -13 -39 -13 -46 7 -4 12 -1 24 7
28 21 14 -9 92 -32 85 -12 -4 -20 1 -24 15 -4 12 -5 23 -3 24 2 2 90 39 105
45 1 1 7 -8 13 -20z m928 -55 c26 -17 28 -41 7 -71 -8 -12 -12 -28 -9 -36 7
-19 -22 -77 -39 -77 -6 0 -18 4 -26 9 -12 8 -13 14 -2 37 10 22 10 29 -1 35
-20 13 -24 11 -42 -16 -14 -21 -20 -24 -36 -15 -26 14 -26 18 16 105 l37 74
36 -15 c20 -8 46 -22 59 -30z m-1105 -148 c8 -23 28 8 22 34 -5 22 -2 31 14
39 17 10 23 6 45 -31 28 -47 32 -41 -56 -91 l-47 -27 -45 77 -46 78 22 18 c21
18 22 18 55 -35 18 -29 34 -57 36 -62z m1253 58 c46 -32 51 -39 41 -55 -15
-24 -18 -24 -51 2 -15 12 -30 18 -34 14 -4 -4 4 -16 17 -26 22 -18 23 -21 9
-35 -14 -14 -18 -14 -42 1 -38 25 -34 -4 4 -31 27 -18 28 -22 16 -39 -13 -18
-16 -17 -70 19 -34 24 -53 43 -48 51 22 35 96 135 100 135 3 0 29 -16 58 -36z
m-1386 -54 c21 -11 51 -36 66 -55 25 -34 26 -37 10 -53 -14 -14 -20 -15 -37
-4 -29 19 -53 -1 -36 -29 10 -17 9 -23 -7 -35 -18 -13 -23 -11 -48 13 -15 15
-37 50 -47 77 l-19 51 26 28 c31 32 41 33 92 7z m1540 -74 c32 -34 33 -37 17
-53 -16 -16 -18 -15 -46 11 -16 15 -31 23 -35 18 -3 -5 3 -17 14 -27 15 -14
17 -21 9 -32 -15 -17 -34 -17 -49 2 -7 8 -17 12 -22 9 -5 -3 3 -19 18 -35 25
-26 26 -31 13 -44 -13 -13 -20 -10 -64 29 l-50 44 64 66 c71 72 72 72 131 12z
m-1657 -67 c39 -35 57 -58 57 -74 0 -27 -61 -95 -85 -95 -8 0 -41 23 -74 50
-55 45 -60 53 -49 70 17 27 23 26 77 -19 45 -37 71 -43 71 -16 0 7 -21 31 -46
52 -42 35 -46 41 -35 61 6 12 15 22 19 22 4 0 33 -23 65 -51z m1743 -77 l-6
-44 25 16 c23 15 25 15 39 -6 9 -12 12 -25 8 -29 -20 -18 -135 -99 -141 -99
-3 0 -12 9 -19 21 -11 18 -11 23 2 32 13 10 41 77 32 77 -1 0 -17 -11 -36 -25
-27 -20 -37 -23 -46 -13 -25 25 -18 37 50 87 83 60 102 56 92 -17z m-1855 -79
c47 -25 69 -58 55 -82 -3 -5 -1 -11 5 -13 17 -6 -7 -48 -26 -48 -9 0 -24 -6
-36 -12 -17 -11 -28 -9 -77 19 -50 27 -57 35 -60 66 -2 25 4 42 23 66 33 38
53 39 116 4z m1129 -63 c238 -69 431 -236 535 -464 44 -97 65 -182 72 -303 3
-57 9 -103 13 -103 13 0 144 -102 198 -154 96 -92 113 -159 48 -194 -57 -31
-296 -17 -296 17 0 7 42 8 114 4 139 -7 176 3 176 49 0 36 -72 115 -171 188
-74 56 -89 60 -89 28 0 -42 -33 -153 -66 -226 -168 -368 -582 -567 -970 -467
-327 86 -566 342 -624 671 -16 88 -8 276 14 359 21 77 87 215 131 275 l35 47
-70 12 c-84 14 -220 14 -254 1 -20 -7 -26 -16 -26 -41 0 -27 13 -45 80 -110
78 -76 94 -99 68 -99 -22 0 -164 137 -182 175 -52 110 59 151 294 110 47 -8
92 -15 100 -15 8 0 38 21 65 46 123 111 272 184 445 218 63 12 286 -3 360 -24z
m832 13 c9 -10 23 -33 33 -52 17 -33 17 -35 -1 -48 -20 -15 -19 -16 -51 34
-10 15 -11 11 -7 -24 6 -39 4 -43 -27 -62 -42 -26 -61 -16 -94 49 -24 48 -24
50 -6 59 15 9 22 6 35 -14 9 -13 16 -29 16 -35 0 -5 4 -10 10 -10 6 0 7 18 4
44 -6 41 -4 45 22 60 38 20 48 20 66 -1z m27 -356 c12 -20 39 -46 59 -59 l37
-23 -52 -6 c-62 -8 -115 -39 -147 -85 l-23 -35 -7 42 c-10 65 -42 117 -91 148
l-45 28 54 6 c61 6 120 40 151 87 l20 29 11 -48 c6 -26 20 -64 33 -84z m-2272
-314 c28 -55 87 -81 204 -92 82 -7 87 -8 34 -10 -34 0 -87 -8 -119 -16 -122
-32 -145 -74 -148 -271 l-2 -139 -5 150 c-6 159 -11 176 -61 218 -36 31 -80
46 -162 55 l-63 8 75 7 c154 15 199 63 209 225 l5 97 7 -97 c4 -65 13 -110 26
-135z m2373 -15 c17 -11 15 -13 -21 -29 -21 -10 -39 -24 -39 -31 0 -7 -9 6
-20 30 -10 23 -25 42 -32 42 -7 1 1 7 17 14 17 7 37 21 45 31 13 16 15 15 23
-14 4 -17 16 -37 27 -43z m-2147 -503 c12 -8 31 -15 42 -16 13 0 8 -5 -17 -15
-21 -9 -40 -25 -44 -36 -6 -20 -7 -20 -28 6 -11 15 -34 31 -51 35 -26 8 -27 9
-7 10 38 2 60 19 68 53 8 33 8 33 12 6 2 -15 13 -35 25 -43z m-238 -45 c23 0
74 -59 81 -94 8 -44 -24 -118 -61 -142 -15 -10 -31 -27 -35 -38 -6 -14 -9 -16
-9 -6 -1 12 -10 15 -38 12 -43 -5 -95 19 -118 54 -9 13 -23 24 -31 24 -13 0
-11 -9 11 -47 15 -27 38 -62 51 -80 20 -26 21 -31 6 -28 -9 2 -23 4 -29 4 -7
1 -35 34 -62 75 l-49 74 44 7 c40 6 44 8 38 30 -8 33 28 105 67 134 17 13 49
26 70 28 21 3 40 11 40 17 1 6 3 3 6 -6 2 -10 11 -18 18 -18z m2574 -24 c10
-12 6 -15 -26 -18 -33 -3 -38 -7 -41 -31 -4 -37 17 -43 67 -18 49 25 69 26 93
4 35 -32 14 -104 -40 -135 -28 -17 -30 -17 -47 2 -18 20 -18 20 14 14 36 -7
71 16 71 48 0 27 -27 33 -66 14 -41 -19 -85 -21 -102 -4 -23 23 -14 77 17 109
33 33 43 35 60 15z m-98 -155 l24 -19 -20 -22 c-11 -12 -33 -31 -50 -42 l-30
-20 27 25 26 25 -27 26 c-32 30 -46 33 -60 9 -6 -12 -5 -26 4 -44 15 -29 80
-89 96 -89 21 0 49 21 64 48 l16 27 -6 -30 c-8 -44 -57 -85 -101 -85 -54 0
-104 53 -104 110 0 80 84 128 141 81z m-2321 -62 c0 -4 -5 -11 -11 -15 -6 -3
-31 -33 -55 -67 -42 -57 -44 -61 -28 -78 14 -15 14 -19 3 -19 -8 0 -25 7 -37
16 -34 24 -28 64 18 122 22 27 40 57 40 66 0 14 3 14 35 -1 19 -9 35 -20 35
-24z m92 -79 c-1 -6 -25 -39 -52 -74 -28 -35 -50 -69 -50 -75 0 -16 -11 -13
-38 7 l-24 18 56 74 c30 40 53 77 50 81 -2 5 10 2 28 -6 18 -8 32 -19 30 -25z
m2043 16 c11 -8 16 -19 12 -30 -9 -22 -30 -20 -52 4 -23 26 -42 25 -50 -1 -14
-43 25 -112 73 -130 29 -11 67 9 83 44 8 19 9 18 4 -8 -7 -34 -44 -72 -81 -81
-62 -16 -132 55 -121 123 12 71 84 114 132 79z m-2308 -58 c-2 -13 -4 -3 -4
22 0 25 2 35 4 23 2 -13 2 -33 0 -45z m2067 19 c8 -12 7 -21 -5 -32 -21 -21
-49 -9 -49 20 0 36 34 44 54 12z m-1665 -48 c37 -23 38 -56 2 -124 -18 -36
-29 -69 -25 -78 9 -24 -21 -22 -46 3 -25 25 -25 34 2 71 19 26 20 31 8 39 -22
14 -36 12 -54 -6 -21 -20 -20 -41 1 -53 26 -14 7 -26 -24 -15 -34 12 -47 35
-39 67 8 33 33 41 91 26 51 -13 59 -9 71 40 9 33 -15 45 -41 21 -12 -11 -29
-20 -38 -20 -27 0 -32 22 -8 41 23 19 56 15 100 -12z m199 -4 c3 -2 -21 -61
-52 -130 -31 -69 -54 -130 -51 -135 3 -5 -12 -2 -32 7 l-38 16 52 106 c28 58
52 117 52 130 1 21 4 23 33 17 17 -3 34 -8 36 -11z m1593 -166 c8 -4 -2 -14
-29 -28 -26 -13 -40 -16 -37 -8 7 16 -63 147 -78 147 -6 0 2 14 18 30 l29 30
42 -81 c24 -45 48 -85 55 -90z m-1481 107 c0 -20 -25 -37 -43 -30 -23 8 -28
31 -11 49 18 17 54 4 54 -19z m1292 2 c-7 -7 -13 -23 -13 -37 -2 -24 -2 -24
-6 -3 -2 12 -10 22 -16 22 -7 1 -1 7 13 15 31 18 38 19 22 3z m-102 -51 c0 -7
20 -32 44 -56 l45 -44 4 34 c2 19 5 4 5 -33 2 -49 -2 -68 -11 -68 -7 0 -44 32
-82 70 -38 39 -76 70 -85 71 -8 0 3 9 25 19 49 23 55 23 55 7z m-1086 -25 c-5
-23 -1 -30 18 -40 23 -11 23 -11 -4 -6 -25 6 -28 3 -44 -52 -9 -32 -17 -71
-18 -88 -1 -26 3 -31 21 -30 12 0 20 -3 17 -8 -3 -4 -21 -8 -39 -8 -25 0 -39
6 -50 23 -13 21 -13 30 7 101 17 66 19 79 7 87 -11 7 -9 9 6 9 11 0 34 9 50
19 17 11 31 20 32 20 1 1 0 -12 -3 -27z m-135 2 c2 -1 -11 -42 -28 -89 -17
-48 -29 -90 -26 -95 3 -5 -13 -1 -35 7 -23 9 -37 19 -32 22 14 9 60 144 54
160 -3 10 3 11 29 6 19 -4 36 -9 38 -11z m693 -20 c5 -3 8 -17 8 -32 l-1 -27
-15 27 c-30 56 -108 44 -102 -15 3 -28 10 -35 57 -58 63 -30 81 -51 81 -95 0
-59 -73 -95 -149 -74 -34 9 -41 15 -41 36 l0 26 29 -31 c34 -36 70 -40 96 -11
28 31 13 67 -40 90 -60 26 -85 53 -85 93 0 36 29 71 65 80 20 5 84 -1 97 -9z
m428 0 c20 -23 -8 -47 -43 -38 -31 7 -33 16 -11 38 20 20 38 20 54 0z m-90
-19 c0 -8 5 -15 10 -15 6 0 10 -11 10 -23 0 -22 18 -89 34 -128 6 -13 -2 -19
-33 -27 -25 -6 -39 -6 -35 0 10 15 -27 149 -43 155 -11 5 -8 11 14 29 33 27
43 29 43 9z m-756 -25 c14 0 17 -3 9 -8 -10 -6 -10 -22 -1 -70 6 -34 15 -62
18 -62 12 0 62 101 57 114 -4 9 2 11 19 8 21 -4 22 -6 10 -16 -8 -6 -40 -56
-71 -111 -31 -55 -61 -104 -67 -110 -7 -7 -7 -3 0 11 9 17 5 46 -15 130 -14
60 -31 113 -37 117 -6 5 4 6 23 3 18 -3 43 -6 55 -6z m643 -22 c13 -12 23 -31
23 -44 0 -18 -7 -23 -46 -29 -25 -3 -48 -4 -52 -1 -3 3 7 6 21 6 22 0 27 5 27
23 0 32 -23 60 -46 56 -33 -7 -32 -119 2 -153 20 -21 63 -20 86 1 10 9 18 11
18 5 0 -22 -53 -52 -91 -52 -57 0 -90 33 -97 98 -4 47 -2 54 26 82 38 38 94
41 129 8z m-701 -237 c20 -16 21 -20 8 -25 -44 -17 -78 -1 -66 32 6 18 30 15
58 -7z"/>
<path d="M2994 3599 c-3 -6 0 -15 7 -20 14 -8 32 9 23 23 -7 11 -22 10 -30 -3z"/>
<path d="M1777 3430 c6 -23 16 -25 32 -6 9 11 8 15 -5 20 -26 10 -32 7 -27
-14z"/>
<path d="M1516 3145 c-6 -16 45 -55 72 -55 24 0 12 39 -18 55 -37 19 -46 19
-54 0z"/>
<path d="M2473 3143 c15 -2 39 -2 55 0 15 2 2 4 -28 4 -30 0 -43 -2 -27 -4z"/>
<path d="M2625 3126 c33 -7 62 -12 64 -10 10 9 -11 16 -65 20 l-59 4 60 -14z"/>
<path d="M2284 3120 c-18 -4 -47 -17 -66 -28 -19 -12 -37 -19 -40 -16 -8 8
-88 -34 -88 -46 0 -6 -6 -10 -14 -10 -17 0 -69 -40 -62 -48 6 -5 -54 -47 -65
-45 -3 1 -18 -9 -35 -22 -22 -18 -25 -24 -12 -25 9 0 24 10 34 23 12 16 15 17
10 4 -4 -13 -2 -17 6 -13 7 2 31 10 53 17 47 15 72 34 81 62 4 12 16 29 28 39
21 17 21 17 1 18 -14 1 -10 5 14 16 24 10 38 11 45 4 7 -7 5 -10 -5 -10 -9 0
-24 -8 -33 -19 -16 -18 -15 -19 31 -15 l48 3 -50 -9 c-36 -6 -56 -17 -72 -37
-12 -15 -21 -28 -20 -29 1 -1 37 1 80 4 73 4 79 6 92 33 19 35 19 37 -2 42
-12 3 -10 5 7 6 32 1 58 37 32 44 -11 3 -8 5 9 6 14 0 38 14 54 31 l29 30 -30
-1 c-16 -1 -43 -4 -60 -9z m-67 -66 c-3 -3 -12 -4 -19 -1 -8 3 -5 6 6 6 11 1
17 -2 13 -5z m-152 -74 c-27 -12 -43 -12 -25 0 8 5 22 9 30 9 10 0 8 -3 -5 -9z"/>
<path d="M2360 3102 l-34 -29 80 -6 c77 -6 80 -5 101 21 12 15 22 30 23 35 0
4 -31 7 -68 7 -60 0 -72 -3 -102 -28z"/>
<path d="M2520 3093 l-22 -28 29 -7 c86 -20 137 -28 143 -21 4 5 10 20 14 34
5 25 2 28 -39 38 -72 18 -101 14 -125 -16z"/>
<path d="M2704 3111 c3 -5 27 -14 52 -20 26 -7 44 -14 42 -16 -3 -3 -26 1 -51
9 l-47 14 -9 -31 c-4 -18 -5 -35 -2 -38 3 -4 41 -18 83 -32 l77 -25 4 26 4 27
2 -27 c1 -24 11 -33 72 -64 39 -19 73 -34 74 -32 11 11 -38 89 -64 103 -17 8
-31 18 -31 21 0 3 5 2 10 -1 6 -3 10 -4 10 -1 0 9 -82 48 -88 42 -3 -3 0 -6 6
-6 6 0 9 -6 6 -14 -5 -12 -8 -12 -23 2 -9 9 -13 20 -8 23 5 4 -16 16 -47 28
-61 23 -80 26 -72 12z m186 -71 c8 -5 11 -10 5 -10 -5 0 -17 5 -25 10 -8 5
-10 10 -5 10 6 0 17 -5 25 -10z"/>
<path d="M2302 3048 c-22 -22 -13 -27 51 -31 l62 -3 -71 -2 c-65 -2 -72 -4
-82 -27 -7 -14 -12 -28 -12 -30 0 -3 24 -6 53 -7 l52 -1 -59 -6 -59 -6 -23
-60 c-13 -33 -23 -54 -23 -47 -1 7 6 29 14 49 23 55 22 56 -57 50 -76 -6 -93
-16 -103 -59 -6 -25 -4 -27 52 -43 32 -10 65 -19 73 -20 8 -1 26 -7 41 -13 14
-5 58 -12 99 -13 65 -3 74 -2 82 16 8 18 8 18 4 -2 -3 -20 2 -23 43 -29 25 -3
71 -12 103 -19 l56 -13 20 79 20 79 -37 9 c-48 12 -92 19 -171 27 -72 7 -92
14 -39 14 37 0 207 -26 232 -36 12 -4 18 3 25 28 l8 33 -55 11 c-133 27 -129
27 -145 -3 -8 -15 -15 -23 -15 -18 -1 6 4 17 9 25 7 11 4 17 -13 22 l-22 6 22
1 c12 1 27 9 32 20 9 16 6 19 -21 25 -51 10 -133 7 -146 -6z m112 -202 c-3
-15 -8 -25 -11 -23 -2 3 -1 17 3 31 3 15 8 25 11 23 2 -3 1 -17 -3 -31z"/>
<path d="M2481 3032 c-12 -23 -20 -19 107 -43 53 -10 65 -10 73 2 15 24 11 27
-43 38 -124 24 -126 24 -137 3z"/>
<path d="M2674 2995 c-4 -10 -1 -21 7 -26 11 -7 11 -9 -3 -9 -11 0 -19 -8 -20
-22 -1 -29 -4 -40 -11 -58 -12 -28 -38 -142 -34 -146 5 -6 178 -64 189 -64 4
0 8 8 9 18 1 12 3 11 7 -5 5 -16 32 -35 89 -62 45 -22 84 -37 87 -33 5 8 26
120 26 139 0 13 -158 98 -167 89 -3 -3 -9 -20 -14 -38 -8 -30 -8 -29 -4 9 l5
42 -86 28 c-47 15 -81 29 -77 30 5 2 42 -8 83 -22 57 -19 76 -22 82 -13 6 10
8 9 8 -2 0 -10 34 -32 85 -57 l85 -42 0 38 c0 35 -3 39 -50 61 -27 13 -48 25
-46 27 2 3 23 -5 46 -17 23 -12 44 -19 47 -16 16 15 -16 46 -82 79 l-76 37 3
-35 c1 -19 -1 -37 -5 -41 -4 -4 -7 -1 -7 8 0 9 -17 20 -41 27 -23 7 -39 14
-36 17 2 2 16 0 31 -6 40 -15 48 -13 44 12 -2 16 -16 26 -54 38 -89 31 -113
34 -120 15z m53 -41 c-3 -3 -12 -4 -19 -1 -8 3 -5 6 6 6 11 1 17 -2 13 -5z
m100 -236 c-3 -8 -6 -5 -6 6 -1 11 2 17 5 13 3 -3 4 -12 1 -19z"/>
<path d="M2990 2977 c0 -3 8 -25 19 -49 13 -32 32 -52 70 -75 28 -18 51 -29
51 -25 0 16 -47 82 -75 104 -56 44 -65 50 -65 45z"/>
<path d="M1986 2894 c-53 -17 -52 -29 5 -39 34 -6 37 -5 47 24 12 35 14 35
-52 15z"/>
<path d="M3030 2849 c0 -12 8 -28 18 -35 16 -13 16 -14 0 -8 -15 5 -18 0 -18
-27 1 -30 8 -39 63 -76 l62 -42 3 31 c3 26 -3 38 -30 61 -27 23 -28 25 -5 12
26 -17 27 -16 27 2 0 10 -5 24 -11 30 -8 8 -8 13 0 17 6 4 11 1 11 -7 0 -8 11
-22 26 -31 l25 -17 -27 40 c-24 37 -28 39 -39 24 -11 -15 -15 -14 -46 9 -54
40 -59 41 -59 17z"/>
<path d="M1829 2801 c-31 -34 -84 -139 -74 -149 2 -2 22 10 46 27 30 22 47 45
60 79 9 26 20 55 24 65 13 30 -16 19 -56 -22z"/>
<path d="M1880 2785 c-12 -31 -20 -58 -17 -61 3 -3 26 2 51 10 26 9 53 16 62
16 12 0 34 36 34 56 0 6 -37 20 -76 28 -30 7 -32 5 -54 -49z"/>
<path d="M2015 2790 c-4 -12 -5 -23 -3 -24 8 -6 98 7 98 14 0 4 -12 10 -27 13
-16 3 -35 8 -45 12 -11 4 -18 0 -23 -15z"/>
<path d="M3156 2755 c-3 -9 -2 -13 4 -10 6 3 10 0 10 -6 0 -7 17 -31 38 -54
l37 -40 -37 34 -38 35 0 -35 c0 -28 9 -43 45 -79 l45 -44 0 31 c0 18 -5 35
-11 38 -6 4 -8 12 -6 19 8 19 -18 68 -50 99 -26 24 -31 26 -37 12z"/>
<path d="M2037 2753 c-35 -5 -45 -31 -54 -128 l-6 -72 -73 -21 -74 -22 0 -51
c0 -49 1 -51 23 -45 101 30 216 56 248 56 l39 0 0 51 0 51 -77 -5 -78 -5 80
11 c45 7 120 9 170 6 l90 -6 -87 -1 -88 -2 0 -49 0 -48 89 -6 c49 -3 130 -13
181 -22 52 -10 95 -14 100 -9 5 5 12 28 16 51 5 35 3 42 -12 46 -16 4 -16 5 3
6 17 1 25 10 32 38 6 21 7 40 3 44 -11 9 -165 69 -179 69 -6 0 -14 -8 -16 -17
-2 -10 -3 -8 -2 4 1 12 -5 25 -14 29 -33 13 -155 54 -162 54 -4 0 -12 -19 -18
-42 l-11 -43 5 43 5 42 -52 -1 c-29 -1 -66 -4 -81 -6z m120 -135 c-2 -13 -4
-5 -4 17 -1 22 1 32 4 23 2 -10 2 -28 0 -40z m200 -10 c-3 -7 -5 -2 -5 12 0
14 2 19 5 13 2 -7 2 -19 0 -25z m71 -48 c40 -7 71 -14 69 -17 -3 -2 -35 1 -72
8 -56 9 -69 9 -76 -2 -6 -10 -9 -5 -9 16 0 17 4 25 8 19 4 -6 40 -17 80 -24z
m-91 -67 c-3 -10 -5 -4 -5 12 0 17 2 24 5 18 2 -7 2 -21 0 -30z m-370 -20 c-3
-10 -5 -4 -5 12 0 17 2 24 5 18 2 -7 2 -21 0 -30z"/>
<path d="M2311 2756 c2 -2 62 -25 133 -51 133 -49 145 -49 146 -3 0 20 -12 24
-116 42 -59 11 -81 11 -86 3 -6 -9 -8 -9 -8 1 0 7 -14 12 -37 12 -20 0 -34 -2
-32 -4z"/>
<path d="M1912 2719 c-28 -11 -57 -29 -63 -40 -5 -11 -13 -52 -16 -91 -6 -64
-5 -71 11 -65 9 4 41 14 70 22 l53 16 7 67 c3 37 9 77 12 90 8 27 -4 28 -74 1z"/>
<path d="M3019 2658 c-7 -40 -13 -76 -14 -80 0 -3 30 -27 68 -52 76 -53 73
-54 86 45 7 49 9 55 9 24 1 -22 -3 -60 -9 -84 l-10 -44 50 -50 c52 -51 54 -51
65 3 3 14 3 3 1 -25 -2 -37 2 -56 17 -77 10 -16 23 -28 28 -28 16 0 21 63 10
115 -6 28 -12 69 -15 92 -2 23 -10 54 -19 70 -14 27 -15 27 -16 5 0 -13 4 -31
9 -40 5 -10 6 -33 1 -52 l-8 -35 -1 43 c-1 38 -8 50 -53 99 -46 48 -166 143
-181 143 -3 0 -11 -33 -18 -72z"/>
<path d="M2596 2687 c-3 -17 -3 -34 1 -38 17 -15 176 -78 184 -73 5 3 9 1 9
-4 0 -9 170 -96 175 -90 5 5 25 82 22 84 -1 1 -40 21 -86 43 -64 31 -87 38
-93 28 -6 -9 -8 -8 -8 4 0 15 -21 23 -156 65 l-42 12 -6 -31z m201 -89 c-3 -8
-6 -5 -6 6 -1 11 2 17 5 13 3 -3 4 -12 1 -19z"/>
<path d="M1789 2655 c-44 -29 -49 -41 -56 -133 l-6 -74 46 33 c44 31 47 36 47
78 0 25 4 63 9 84 5 20 6 37 2 37 -3 0 -23 -11 -42 -25z"/>
<path d="M2577 2603 c-14 -26 -17 -67 -5 -74 10 -7 9 -9 -3 -9 -11 0 -19 -12
-23 -36 -4 -19 -9 -41 -12 -48 -3 -8 8 -17 28 -24 l33 -11 -33 5 c-27 5 -34 2
-42 -18 l-10 -23 3 25 c2 22 -3 26 -48 36 -118 26 -133 26 -138 2 -4 -23 -4
-23 -6 -1 -1 18 -9 23 -43 28 -24 4 -63 5 -88 3 l-45 -3 -3 -42 c-3 -43 -3
-43 30 -43 18 0 56 -3 85 -6 44 -6 52 -4 56 12 4 17 5 17 6 2 0 -10 6 -18 11
-18 6 0 5 -6 -2 -14 -7 -8 -16 -10 -19 -5 -3 5 -41 10 -84 11 l-79 3 2 -85 c4
-119 4 -118 65 -123 l52 -3 -52 -2 c-62 -2 -62 -3 -37 -117 8 -38 17 -85 20
-103 2 -18 15 -61 28 -95 19 -52 27 -63 49 -65 25 -3 25 -3 22 60 -2 35 -2 50
1 33 14 -95 14 -96 36 -93 18 2 25 16 39 73 10 38 16 71 14 74 -3 2 -1 9 4 15
5 6 14 35 21 64 7 29 14 51 17 49 2 -3 0 -22 -6 -43 -5 -22 -12 -50 -15 -64
-3 -14 -14 -59 -25 -100 -11 -41 -19 -75 -18 -76 1 -1 11 -4 22 -8 16 -5 28 6
63 57 23 34 42 66 42 70 0 4 -10 12 -22 18 -22 9 -21 9 4 4 21 -4 30 1 47 28
11 17 21 28 21 24 0 -4 -7 -19 -16 -32 -9 -13 -13 -29 -9 -35 3 -5 2 -10 -3
-10 -5 0 -30 -31 -55 -69 l-45 -68 24 -11 c21 -10 29 -6 84 44 33 31 60 60 60
65 0 4 -12 16 -27 24 -16 9 -19 13 -8 10 11 -4 27 -9 36 -12 11 -3 29 11 51
39 44 53 136 187 171 249 l27 45 -60 29 c-33 16 -58 30 -56 32 2 3 27 -7 55
-21 28 -14 55 -26 60 -26 11 0 41 51 41 69 0 10 -94 62 -136 75 -18 5 -23 2
-28 -20 -4 -14 -9 -24 -12 -22 -2 3 0 16 5 30 9 24 7 26 -31 37 -22 7 -38 14
-36 16 7 8 82 -19 161 -57 43 -21 82 -38 86 -38 5 0 14 12 19 28 5 15 13 35
17 44 5 13 -7 24 -62 52 -37 19 -64 35 -60 36 4 0 35 -14 69 -31 61 -31 71
-30 82 7 6 18 -7 27 -111 76 -115 55 -238 108 -247 108 -3 0 -7 -3 -9 -7z m40
-89 c-3 -3 -12 -4 -19 -1 -8 3 -5 6 6 6 11 1 17 -2 13 -5z m149 -21 c-5 -17
-3 -29 6 -35 10 -7 10 -9 -2 -5 -9 2 -20 -7 -27 -22 -12 -26 -12 -26 -6 5 4
28 2 32 -22 38 -15 4 -25 9 -23 12 3 2 17 0 31 -5 24 -9 27 -8 33 14 3 14 8
25 11 25 3 0 2 -12 -1 -27z m-242 -175 c7 -5 5 -8 -6 -8 -9 0 -19 -6 -21 -12
-4 -8 -6 -7 -6 4 -1 9 -9 19 -18 21 -14 4 -12 5 5 6 13 1 22 8 23 19 1 14 2
13 6 -3 3 -11 10 -23 17 -27z m-131 25 c-7 -2 -21 -2 -30 0 -10 3 -4 5 12 5
17 0 24 -2 18 -5z m54 -9 c-3 -3 -12 -4 -19 -1 -8 3 -5 6 6 6 11 1 17 -2 13
-5z m168 -44 c41 -14 61 -17 65 -9 4 6 10 2 13 -11 3 -12 3 -19 -1 -16 -3 4
-14 -8 -25 -26 -10 -18 -15 -24 -12 -13 15 42 10 48 -55 71 -36 12 -60 23 -54
23 6 1 37 -8 69 -19z m-308 -52 c-2 -13 -4 -3 -4 22 0 25 2 35 4 23 2 -13 2
-33 0 -45z m180 20 c-3 -8 -6 -5 -6 6 -1 11 2 17 5 13 3 -3 4 -12 1 -19z m-10
-40 c-3 -8 -6 -5 -6 6 -1 11 2 17 5 13 3 -3 4 -12 1 -19z m-15 -71 c-9 -33 -8
-35 22 -45 l31 -9 -37 1 c-21 0 -38 4 -38 7 0 6 -100 29 -126 29 -7 0 -15 -15
-17 -32 -2 -18 -4 -4 -4 32 0 36 2 53 4 39 4 -23 11 -27 67 -37 86 -16 83 -17
92 31 4 23 9 37 11 30 2 -6 0 -27 -5 -46z m174 6 c-8 -15 -15 -25 -16 -21 0
12 23 58 27 54 3 -2 -2 -17 -11 -33z m-26 -63 c-12 -22 -2 -39 24 -40 5 0 7
-3 4 -6 -4 -3 -15 -1 -26 5 -11 6 -22 7 -24 3 -2 -4 -11 1 -21 11 -18 18 -18
19 2 12 16 -5 23 0 33 19 6 15 13 24 15 22 3 -2 -1 -14 -7 -26z m-173 -32 c-3
-8 -6 -5 -6 6 -1 11 2 17 5 13 3 -3 4 -12 1 -19z m249 -34 c18 -14 18 -14 -6
-3 -31 14 -36 19 -24 19 6 0 19 -7 30 -16z m-121 -33 c-21 -43 -29 -39 -8 4 9
19 18 33 21 31 2 -2 -4 -18 -13 -35z m-232 -60 c39 -9 38 -9 -16 -4 -32 3 -69
6 -83 6 -13 0 -21 3 -18 8 2 5 18 6 34 2 28 -5 30 -4 32 28 l1 34 4 -32 c4
-28 9 -33 46 -42z"/>
<path d="M1706 2548 c-34 -93 -40 -210 -17 -308 13 -55 13 -83 1 -55 -7 14 -8
8 -3 -20 7 -46 13 -59 13 -26 0 12 11 38 24 59 13 21 23 49 21 63 -1 13 0 16
2 7 6 -23 6 -23 53 8 38 25 40 28 34 68 -4 22 -8 42 -9 44 -6 7 -85 -61 -85
-74 0 -8 -4 -13 -10 -9 -5 3 -16 -7 -24 -22 -8 -15 -15 -24 -16 -19 0 5 8 23
19 40 13 22 17 43 13 74 l-4 44 -19 -29 c-10 -15 -19 -23 -19 -17 0 6 8 22 19
35 13 17 20 47 23 102 3 42 4 77 2 77 -1 0 -9 -19 -18 -42z"/>
<path d="M2984 2511 l-11 -38 73 -36 73 -36 10 27 c11 27 11 27 6 -5 -4 -30
-1 -34 52 -62 31 -17 58 -29 60 -27 17 16 -207 216 -242 216 -6 0 -16 -17 -21
-39z"/>
<path d="M1769 2467 c-27 -18 -35 -30 -37 -61 -5 -63 3 -72 39 -42 17 14 35
26 40 26 5 0 9 23 9 50 0 28 -4 50 -9 50 -4 0 -23 -10 -42 -23z"/>
<path d="M2060 2453 c-92 -14 -85 -9 -82 -56 l4 -44 56 3 c54 3 49 0 -25 -11
-30 -5 -31 -7 -27 -48 3 -39 0 -33 -11 20 l-5 22 -59 -20 -59 -20 14 -52 c7
-28 12 -53 9 -55 -4 -4 -25 66 -25 86 0 19 -15 14 -52 -15 -18 -15 -35 -28
-36 -29 -7 -5 58 -165 74 -183 2 -2 11 2 20 10 16 13 16 12 4 -8 -13 -20 -11
-27 23 -75 20 -29 47 -65 59 -80 22 -27 24 -27 46 -10 l23 18 -46 79 c-25 44
-45 84 -45 88 0 5 -10 7 -22 4 -19 -5 -20 -4 -7 6 15 9 15 15 3 50 -8 22 -12
42 -10 45 3 2 10 -14 17 -37 7 -23 13 -41 14 -41 1 0 23 7 48 16 47 16 47 17
42 53 l-5 36 11 -34 c10 -33 11 -33 56 -27 25 3 53 6 63 6 14 0 16 9 13 63 -7
114 -13 145 -31 150 -15 4 -15 5 -1 6 13 1 18 13 21 46 3 49 2 50 -72 38z
m-63 -235 c-3 -7 -5 -2 -5 12 0 14 2 19 5 13 2 -7 2 -19 0 -25z"/>
<path d="M2954 2423 c-4 -10 -28 -65 -55 -122 -27 -56 -49 -107 -49 -112 0 -4
10 -14 23 -20 12 -7 38 -25 59 -41 l36 -28 22 27 22 28 -16 -28 c-17 -27 -16
-28 21 -71 21 -24 43 -43 48 -42 6 0 21 13 34 29 l24 28 -48 49 c-27 27 -52
47 -57 44 -5 -3 -7 0 -6 7 2 6 -26 31 -61 55 -36 24 -60 44 -55 44 6 0 37 -19
69 -42 32 -23 60 -37 62 -31 2 5 11 19 19 29 13 17 14 16 1 -11 -14 -29 -14
-31 33 -83 l48 -53 21 34 c11 19 21 41 21 49 0 18 -108 123 -172 167 -27 17
-48 34 -48 37 0 7 16 -3 73 -44 26 -19 49 -33 51 -31 11 12 26 50 26 63 0 9
-29 30 -70 51 -64 32 -71 34 -76 18z"/>
<path d="M1883 2413 c-38 -13 -43 -18 -43 -46 0 -53 9 -58 70 -37 54 18 55 20
58 59 3 37 1 41 -20 40 -13 0 -42 -7 -65 -16z"/>
<path d="M3099 2320 l-17 -38 47 -51 c26 -28 50 -51 53 -51 6 0 48 94 48 108
0 5 -26 23 -57 40 l-58 31 -16 -39z"/>
<path d="M3216 2225 l-27 -63 25 -49 24 -48 27 57 c14 32 29 73 32 91 4 29 1
37 -24 55 l-29 21 -28 -64z"/>
<path d="M1725 2180 c-15 -29 -14 -33 25 -110 22 -44 44 -80 48 -80 4 0 13
-12 20 -27 7 -16 35 -53 63 -83 47 -51 51 -54 64 -36 12 16 9 25 -34 80 -27
33 -54 71 -60 84 -12 23 -13 23 -27 5 -14 -17 -14 -16 -4 4 8 18 6 32 -13 70
-14 27 -30 65 -36 86 -15 45 -26 47 -46 7z"/>
<path d="M3272 2118 c-24 -55 -31 -82 -27 -108 5 -32 1 -29 -11 9 -3 9 -15 -3
-34 -30 -16 -25 -40 -55 -54 -68 -21 -20 -26 -34 -26 -70 l1 -46 29 33 c21 23
30 43 31 70 1 36 2 36 8 7 l6 -30 18 25 c9 13 17 32 17 41 0 9 6 19 14 22 16
6 69 166 64 196 -2 16 -12 2 -36 -51z"/>
<path d="M2826 2157 c-7 -12 -30 -48 -50 -80 -20 -32 -37 -61 -39 -66 -1 -4
19 -24 46 -44 l47 -37 38 41 c20 23 50 60 66 81 l29 40 -29 24 c-16 13 -44 33
-61 43 l-33 20 -14 -22z"/>
<path d="M3158 2113 l-26 -40 21 -46 c12 -25 24 -46 27 -46 3 -1 15 15 28 35
l23 35 -23 51 -23 51 -27 -40z"/>
<path d="M2058 2133 c-36 -6 -35 -19 5 -118 32 -79 32 -80 67 -79 25 1 28 0 8
-3 -16 -2 -28 -9 -28 -16 0 -19 81 -148 96 -154 27 -10 27 6 1 84 -14 43 -33
126 -43 186 l-18 107 -31 -1 c-16 -1 -42 -4 -57 -6z"/>
<path d="M1710 2092 c0 -34 49 -154 69 -166 22 -14 11 54 -15 96 -15 23 -32
55 -40 72 l-13 31 -1 -33z"/>
<path d="M1980 2113 c-8 -3 -25 -10 -38 -14 l-22 -9 26 -52 c15 -29 37 -69 50
-90 22 -35 25 -36 57 -26 l33 10 -33 82 c-18 44 -33 87 -33 94 0 13 -14 14
-40 5z"/>
<path d="M2920 2023 c-25 -31 -52 -66 -61 -77 -16 -20 -15 -23 17 -60 l33 -39
71 68 c38 38 70 73 70 80 0 13 -64 85 -76 85 -5 0 -29 -26 -54 -57z"/>
<path d="M3097 2026 l-26 -33 24 -47 24 -47 26 35 26 35 -20 45 c-11 25 -22
46 -24 46 -3 0 -16 -15 -30 -34z"/>
<path d="M2663 1914 l-57 -75 30 -24 c16 -13 32 -23 36 -22 13 4 125 101 137
119 9 15 4 22 -33 48 -25 16 -47 30 -50 30 -3 0 -31 -34 -63 -76z"/>
<path d="M2986 1909 l-70 -69 17 -36 17 -35 31 18 c17 10 53 38 80 63 l49 45
-19 43 c-11 23 -24 42 -28 41 -4 0 -39 -32 -77 -70z"/>
<path d="M1800 1927 c0 -19 14 -43 47 -78 57 -61 83 -78 83 -52 -1 10 -30 50
-65 88 -61 66 -65 68 -65 42z"/>
<path d="M2047 1907 c-16 -11 -13 -18 38 -80 31 -38 63 -71 70 -73 31 -12 33
8 5 49 -15 23 -36 59 -46 80 -18 39 -38 46 -67 24z"/>
<path d="M2785 1872 c-22 -20 -56 -49 -75 -64 l-34 -27 23 -25 24 -26 46 27
c25 14 60 36 76 48 45 33 64 40 30 11 -16 -14 -55 -40 -86 -58 -51 -30 -55
-35 -46 -55 6 -13 17 -23 26 -23 21 0 157 65 165 79 13 20 -72 151 -97 151 -7
0 -30 -17 -52 -38z"/>
<path d="M1998 1886 c-10 -7 -18 -18 -18 -23 0 -11 52 -61 112 -107 56 -42 66
-22 16 32 -24 26 -54 62 -68 79 -22 29 -27 31 -42 19z"/>
<path d="M3070 1845 c-13 -14 -45 -39 -71 -57 -41 -28 -47 -37 -42 -58 3 -14
7 -27 9 -29 2 -3 36 17 74 43 66 46 70 50 70 87 0 45 -8 48 -40 14z"/>
<path d="M1828 1834 c17 -32 111 -116 122 -109 9 6 14 -8 11 -28 -1 -5 3 -6 8
-3 5 3 34 -6 65 -20 31 -14 64 -24 74 -22 10 2 -10 16 -53 36 -38 18 -78 40
-87 49 -15 13 -18 13 -19 2 0 -10 -2 -9 -7 2 -4 9 -33 38 -66 64 -32 27 -54
39 -48 29z"/>
<path d="M1953 1833 c-6 -16 5 -29 72 -81 17 -13 23 -20 15 -16 -8 4 -31 20
-51 36 -20 15 -40 28 -43 28 -16 0 -3 -31 20 -49 39 -31 134 -75 142 -66 4 4
2 10 -4 12 -6 2 -20 10 -30 19 -17 13 -17 13 9 3 39 -17 45 -3 11 23 -16 13
-50 42 -75 65 -51 48 -57 50 -66 26z"/>
<path d="M2532 1768 c-58 -56 -69 -78 -39 -78 7 0 48 21 92 46 74 44 77 47 59
61 -45 34 -47 33 -112 -29z"/>
<path d="M3138 1813 c-29 -34 -30 -48 -2 -21 15 15 26 30 23 33 -3 3 -13 -3
-21 -12z"/>
<path d="M2595 1730 c-33 -21 -66 -39 -72 -39 -18 -1 -16 -20 2 -28 15 -5 142
36 175 57 12 7 12 12 -4 29 -25 27 -30 26 -101 -19z"/>
<path d="M3046 1735 c-27 -19 -57 -37 -68 -41 -17 -5 -56 -64 -43 -64 28 0
136 85 156 122 13 24 12 24 -45 -17z"/>
<path d="M2181 1741 c-13 -3 -33 -18 -44 -33 -20 -26 -20 -27 0 -60 66 -113
365 -160 390 -61 9 37 -12 70 -64 103 -82 52 -201 74 -282 51z"/>
<path d="M2855 1704 c-38 -19 -75 -34 -82 -34 -7 0 -13 -11 -13 -25 0 -30 2
-30 72 -6 91 31 118 49 118 76 0 32 -10 31 -95 -11z"/>
<path d="M2628 1681 c-49 -19 -88 -39 -88 -43 0 -12 44 -9 121 8 72 16 94 35
68 58 -11 10 -31 5 -101 -23z"/>
<path d="M1996 1668 c10 -15 86 -48 113 -48 13 0 22 3 18 6 -12 12 -137 52
-131 42z"/>
<path d="M2847 1636 c-88 -32 -121 -56 -92 -66 9 -3 2 -9 -20 -16 -36 -11 -47
4 -12 18 25 11 21 31 -5 25 -13 -3 -58 -9 -101 -13 -49 -4 -73 -10 -65 -15 9
-6 7 -9 -9 -9 -27 0 -31 -17 -5 -23 9 -2 3 -2 -15 0 -17 2 -34 -1 -38 -7 -3
-5 -16 -10 -28 -11 -19 -1 -18 -2 8 -14 17 -8 44 -14 60 -14 26 0 28 2 10 10
-15 7 -11 8 17 4 20 -3 49 -2 65 2 l28 7 -35 7 c-33 6 -32 7 15 9 107 5 131 7
170 18 22 6 49 19 60 28 20 16 20 16 0 9 -11 -3 -31 -8 -45 -9 -14 -2 -18 -1
-10 1 83 27 118 46 128 68 6 14 11 25 9 24 -1 0 -42 -15 -90 -33z m-189 -83
c-16 -2 -40 -2 -55 0 -16 2 -3 4 27 4 30 0 43 -2 28 -4z"/>
<path d="M2670 1639 c-36 -10 -77 -18 -92 -18 -19 -1 -28 -6 -28 -17 0 -15 9
-16 68 -10 120 12 132 16 132 42 0 13 -3 23 -7 23 -5 -1 -37 -10 -73 -20z"/>
<path d="M2070 1613 c0 -8 70 -33 92 -33 22 1 22 1 3 12 -20 12 -95 28 -95 21z"/>
<path d="M2180 1555 c34 -18 148 -47 169 -43 9 2 -9 10 -39 17 -30 8 -67 20
-82 27 -15 8 -37 14 -50 14 -23 -1 -23 -1 2 -15z"/>
<path d="M2374 1511 c3 -5 19 -11 36 -13 24 -4 27 -2 19 9 -13 14 -64 18 -55
4z"/>
<path d="M2678 1513 c7 -3 16 -2 19 1 4 3 -2 6 -13 5 -11 0 -14 -3 -6 -6z"/>
<path d="M1290 1813 l1 -78 34 37 c20 22 35 48 35 62 0 29 -24 56 -51 56 -17
0 -19 -8 -19 -77z"/>
<path d="M1194 1816 c-68 -69 -79 -99 -46 -129 26 -24 60 -21 99 9 33 25 33
26 33 105 0 50 -4 79 -11 79 -6 0 -40 -29 -75 -64z"/>
<path d="M952 3763 c2 -10 10 -18 18 -18 8 0 16 8 18 18 2 12 -3 17 -18 17
-15 0 -20 -5 -18 -17z"/>
<path d="M1073 3755 c-9 -25 2 -27 22 -5 17 18 17 20 1 20 -9 0 -19 -7 -23
-15z"/>
<path d="M3910 3754 c0 -17 17 -36 24 -26 3 5 -1 15 -9 22 -8 7 -15 9 -15 4z"/>
<path d="M855 3671 c-8 -15 3 -31 21 -31 9 0 14 7 12 17 -4 20 -24 28 -33 14z"/>
<path d="M3730 3669 c0 -21 -200 -171 -218 -164 -7 2 2 -16 20 -41 28 -40 33
-43 38 -25 5 21 184 161 207 161 19 0 16 11 -17 50 -20 24 -30 30 -30 19z"/>
<path d="M977 3663 c-10 -9 -9 -43 1 -43 12 0 32 23 32 37 0 14 -22 18 -33 6z"/>
<path d="M4002 3634 c1 -9 9 -19 16 -22 9 -3 13 2 10 14 -1 9 -9 19 -16 22 -9
3 -13 -2 -10 -14z"/>
<path d="M765 3561 c-8 -15 3 -31 21 -31 9 0 14 7 12 17 -4 20 -24 28 -33 14z"/>
<path d="M883 3549 c-13 -13 -6 -39 11 -39 18 0 35 21 29 36 -6 17 -25 18 -40
3z"/>
<path d="M4085 3531 c-8 -15 3 -31 21 -31 9 0 14 7 12 17 -4 20 -24 28 -33 14z"/>
<path d="M684 3439 c-10 -17 13 -36 27 -22 12 12 4 33 -11 33 -5 0 -12 -5 -16
-11z"/>
<path d="M793 3424 c-3 -8 -1 -20 5 -26 16 -16 42 -2 42 22 0 24 -38 28 -47 4z"/>
<path d="M1036 3428 c4 -7 47 -64 96 -126 48 -62 88 -119 88 -125 1 -7 7 -1
14 12 12 22 11 26 -17 51 l-31 28 24 46 c26 49 36 52 92 31 13 -5 22 3 37 34
12 22 21 42 21 43 0 2 -53 4 -118 5 -64 1 -139 5 -165 8 -38 5 -47 3 -41 -7z
m170 -71 c5 -5 -23 -67 -30 -67 -1 0 -18 19 -36 41 l-33 42 47 -5 c26 -3 49
-8 52 -11z"/>
<path d="M3898 3423 c-6 -21 -223 -117 -245 -108 -11 4 -13 1 -8 -12 4 -10 11
-30 17 -45 9 -25 11 -26 31 -13 21 13 223 105 231 105 3 0 7 -14 11 -31 5 -24
2 -36 -12 -51 -24 -24 -83 -27 -97 -6 -8 13 -13 10 -36 -16 -46 -54 -60 -80
-60 -111 1 -34 28 -102 29 -72 1 10 17 47 37 83 35 63 36 63 60 48 45 -30 114
9 114 65 0 22 -51 164 -65 179 -1 1 -5 -5 -7 -15z"/>
<path d="M4163 3404 c-7 -19 2 -28 22 -21 19 8 19 23 0 31 -9 3 -18 -1 -22
-10z"/>
<path d="M617 3324 c-14 -14 -7 -35 11 -32 9 2 17 10 17 17 0 16 -18 25 -28
15z"/>
<path d="M717 3307 c-3 -8 -2 -20 3 -27 11 -18 42 -4 38 17 -4 22 -34 29 -41
10z"/>
<path d="M4232 3273 c4 -21 33 -25 33 -3 0 8 -8 16 -18 18 -14 3 -18 -1 -15
-15z"/>
<path d="M547 3186 c-7 -16 1 -26 20 -26 7 0 13 9 13 20 0 23 -25 27 -33 6z"/>
<path d="M663 3193 c-16 -6 -17 -39 -2 -49 6 -3 18 1 27 10 14 14 14 18 2 30
-8 7 -21 12 -27 9z"/>
<path d="M4292 3143 c2 -10 10 -18 18 -18 8 0 16 8 18 18 2 12 -3 17 -18 17
-15 0 -20 -5 -18 -17z"/>
<path d="M895 3097 c-4 -17 -8 -39 -11 -48 -3 -12 2 -15 24 -11 16 2 48 -1 71
-8 37 -10 42 -14 37 -33 -3 -12 -8 -41 -12 -64 -4 -24 -12 -43 -18 -43 -33 1
-103 23 -112 36 -10 12 -13 8 -18 -23 -4 -21 -10 -47 -13 -58 -5 -17 -4 -18 9
-7 12 10 39 7 139 -13 67 -14 126 -30 130 -36 7 -12 13 1 24 61 5 26 4 32 -5
24 -7 -8 -26 -8 -58 -3 -74 14 -71 10 -57 79 7 34 14 63 17 65 8 8 104 -18
115 -32 9 -11 13 -4 22 37 13 61 13 69 2 51 -7 -11 -29 -10 -131 10 -68 13
-129 29 -136 36 -10 10 -14 7 -19 -20z"/>
<path d="M493 3054 c-8 -20 8 -36 26 -25 15 10 8 41 -9 41 -6 0 -13 -7 -17
-16z"/>
<path d="M594 3045 c-4 -9 -2 -21 4 -27 15 -15 44 -1 40 19 -4 23 -36 29 -44
8z"/>
<path d="M4344 3019 c-3 -6 -2 -15 4 -21 13 -13 32 -2 32 18 0 16 -26 19 -36
3z"/>
<path d="M3953 2985 c-11 -8 -33 -44 -48 -80 -21 -49 -34 -67 -52 -72 -34 -8
-57 18 -57 63 0 29 7 42 30 60 l29 24 -25 0 c-43 0 -54 -14 -53 -67 1 -62 23
-107 63 -123 51 -21 81 -1 121 83 29 61 38 72 59 72 37 0 58 -47 36 -81 -16
-23 -16 -24 8 -24 23 0 24 3 20 38 -9 67 -14 82 -34 102 -24 24 -67 26 -97 5z"/>
<path d="M444 2919 c-8 -14 11 -33 25 -25 6 4 11 14 11 22 0 16 -26 19 -36 3z"/>
<path d="M549 2914 c-10 -12 -9 -18 3 -31 19 -18 38 -10 38 17 0 24 -25 33
-41 14z"/>
<path d="M4392 2874 c4 -21 22 -23 26 -1 2 10 -3 17 -13 17 -10 0 -15 -6 -13
-16z"/>
<path d="M637 2823 c-4 -3 -7 -18 -6 -32 1 -26 1 -25 10 3 9 31 7 41 -4 29z"/>
<path d="M410 2770 c0 -15 5 -20 18 -18 9 2 17 10 17 18 0 8 -8 16 -17 18 -13
2 -18 -3 -18 -18z"/>
<path d="M509 2774 c-11 -14 -10 -18 6 -30 16 -12 21 -12 34 0 12 12 12 18 1
30 -16 20 -24 20 -41 0z"/>
<path d="M4422 2733 c2 -10 10 -18 18 -18 8 0 16 8 18 18 2 12 -3 17 -18 17
-15 0 -20 -5 -18 -17z"/>
<path d="M604 2686 c-8 -20 -1 -47 11 -47 13 1 19 61 5 61 -6 0 -13 -6 -16
-14z"/>
<path d="M384 2639 c-10 -17 13 -36 27 -22 12 12 4 33 -11 33 -5 0 -12 -5 -16
-11z"/>
<path d="M480 2621 c0 -27 19 -36 37 -18 18 18 9 37 -18 37 -12 0 -19 -7 -19
-19z"/>
<path d="M4442 2593 c2 -10 10 -18 18 -18 8 0 16 8 18 18 2 12 -3 17 -18 17
-15 0 -20 -5 -18 -17z"/>
<path d="M598 2559 c-35 -19 -15 -69 27 -69 12 0 16 3 8 8 -6 4 -13 21 -15 39
-3 27 -6 30 -20 22z"/>
<path d="M4381 2534 c0 -11 3 -14 6 -6 3 7 2 16 -1 19 -3 4 -6 -2 -5 -13z"/>
<path d="M370 2490 c0 -11 6 -20 13 -20 19 0 27 10 20 26 -8 21 -33 17 -33 -6z"/>
<path d="M464 2485 c-4 -9 -2 -21 4 -27 15 -15 44 -1 40 19 -4 23 -36 29 -44
8z"/>
<path d="M4222 2488 c-18 -18 -14 -46 7 -58 38 -20 71 13 51 51 -12 21 -40 25
-58 7z"/>
<path d="M4462 2453 c5 -25 28 -28 28 -4 0 12 -6 21 -16 21 -9 0 -14 -7 -12
-17z"/>
<path d="M574 2416 c-10 -27 1 -51 26 -54 31 -5 53 23 39 49 -12 22 -57 25
-65 5z"/>
<path d="M4354 2405 c-4 -9 -2 -21 4 -27 15 -15 44 -1 40 19 -4 23 -36 29 -44
8z"/>
<path d="M367 2364 c-14 -15 -6 -34 14 -34 14 0 19 5 17 17 -3 18 -20 27 -31
17z"/>
<path d="M464 2345 c-4 -9 -2 -21 4 -27 15 -15 44 -1 40 19 -4 23 -36 29 -44
8z"/>
<path d="M4221 2346 c-7 -8 -10 -24 -6 -35 14 -45 79 -30 73 17 -2 21 -9 28
-29 30 -14 2 -31 -4 -38 -12z"/>
<path d="M4463 2315 c-7 -20 2 -29 21 -22 9 4 13 13 10 22 -8 19 -23 19 -31 0z"/>
<path d="M582 2288 c-28 -28 -1 -75 38 -63 14 4 20 15 20 35 0 36 -33 53 -58
28z"/>
<path d="M4362 2271 c-20 -12 -10 -46 13 -46 14 0 20 7 20 24 0 27 -13 35 -33
22z"/>
<path d="M4222 2218 c-25 -25 -6 -68 30 -68 33 0 43 53 14 72 -16 11 -30 10
-44 -4z"/>
<path d="M362 2203 c2 -10 10 -18 18 -18 8 0 16 8 18 18 2 12 -3 17 -18 17
-15 0 -20 -5 -18 -17z"/>
<path d="M463 2194 c-7 -18 14 -35 34 -27 7 3 13 14 13 24 0 24 -38 26 -47 3z"/>
<path d="M4461 2180 c-17 -10 -7 -40 14 -40 8 0 15 9 15 19 0 24 -12 32 -29
21z"/>
<path d="M595 2156 c-25 -18 -16 -60 14 -64 31 -5 54 23 41 48 -13 24 -35 31
-55 16z"/>
<path d="M4347 2124 c-4 -4 -7 -16 -7 -26 0 -14 6 -19 23 -16 14 2 22 10 22
23 0 20 -25 32 -38 19z"/>
<path d="M4210 2080 c-25 -25 -25 -35 2 -54 28 -20 58 -4 58 29 0 37 -34 51
-60 25z"/>
<path d="M380 2060 c0 -23 25 -27 33 -6 7 16 -1 26 -20 26 -7 0 -13 -9 -13
-20z"/>
<path d="M480 2045 c0 -29 34 -36 44 -9 8 21 -1 34 -25 34 -14 0 -19 -7 -19
-25z"/>
<path d="M4440 2020 c0 -11 6 -20 13 -20 19 0 27 10 20 26 -8 21 -33 17 -33
-6z"/>
<path d="M607 2023 c-12 -11 -7 -50 7 -62 16 -14 51 -1 59 21 11 33 -42 66
-66 41z"/>
<path d="M4327 1983 c-12 -12 -7 -41 7 -46 22 -9 41 19 26 38 -14 16 -23 19
-33 8z"/>
<path d="M4177 1953 c-14 -13 -6 -53 12 -63 38 -20 71 13 51 51 -10 18 -50 26
-63 12z"/>
<path d="M407 1934 c-14 -14 -7 -35 11 -32 9 2 17 10 17 17 0 16 -18 25 -28
15z"/>
<path d="M504 1915 c-4 -9 -2 -21 4 -27 15 -15 44 -1 40 19 -4 23 -36 29 -44
8z"/>
<path d="M643 1893 c-18 -7 -16 -48 3 -64 31 -26 70 25 44 56 -13 15 -25 17
-47 8z"/>
<path d="M4417 1894 c-14 -14 -7 -35 11 -32 9 2 17 10 17 17 0 16 -18 25 -28
15z"/>
<path d="M4289 1834 c-11 -14 -11 -18 6 -30 22 -16 39 -5 33 22 -4 24 -22 28
-39 8z"/>
<path d="M4146 1814 c-9 -8 -16 -19 -16 -24 0 -9 28 -40 36 -40 17 0 44 23 44
38 0 38 -37 53 -64 26z"/>
<path d="M435 1790 c-8 -14 3 -30 21 -30 8 0 14 9 14 20 0 21 -24 28 -35 10z"/>
<path d="M544 1775 c-4 -9 -2 -21 4 -27 15 -15 44 -1 40 19 -4 23 -36 29 -44
8z"/>
<path d="M683 1763 c-18 -6 -16 -48 1 -62 19 -16 56 2 56 27 0 32 -26 48 -57
35z"/>
<path d="M4375 1750 c-8 -14 3 -30 21 -30 8 0 14 9 14 20 0 21 -24 28 -35 10z"/>
<path d="M4244 1696 c-8 -21 3 -36 27 -36 15 0 20 6 17 22 -4 27 -35 37 -44
14z"/>
<path d="M4095 1681 c-9 -31 5 -52 33 -49 33 4 50 31 33 52 -18 22 -58 20 -66
-3z"/>
<path d="M481 1656 c-9 -10 -8 -16 3 -25 10 -9 16 -8 25 3 9 10 8 16 -3 25
-10 9 -16 8 -25 -3z"/>
<path d="M596 1645 c-16 -16 -16 -19 -2 -34 14 -14 18 -14 31 0 13 13 13 18 2
33 -13 17 -14 17 -31 1z"/>
<path d="M715 1620 c-9 -28 12 -52 44 -48 22 2 26 8 26 33 0 26 -4 30 -32 33
-25 2 -33 -1 -38 -18z"/>
<path d="M4334 1616 c-9 -23 7 -38 26 -26 13 8 13 11 -2 26 -16 17 -18 17 -24
0z"/>
<path d="M4052 1568 c-28 -28 -1 -75 38 -63 33 11 21 75 -15 75 -6 0 -16 -5
-23 -12z"/>
<path d="M4194 1555 c-4 -9 -2 -21 4 -27 15 -15 44 -1 40 19 -4 23 -36 29 -44
8z"/>
<path d="M530 1510 c0 -15 5 -20 18 -18 9 2 17 10 17 18 0 8 -8 16 -17 18 -13
2 -18 -3 -18 -18z"/>
<path d="M644 1505 c-4 -9 -2 -21 4 -27 15 -15 44 -1 40 19 -4 23 -36 29 -44
8z"/>
<path d="M779 1504 c-17 -21 0 -48 33 -52 28 -3 42 18 33 49 -8 23 -48 25 -66
3z"/>
<path d="M4274 1479 c-8 -14 11 -33 25 -25 6 4 11 14 11 22 0 16 -26 19 -36 3z"/>
<path d="M3980 1441 c-20 -38 13 -71 51 -51 21 12 25 40 7 58 -18 18 -46 14
-58 -7z"/>
<path d="M4130 1421 c0 -27 19 -36 37 -18 18 18 9 37 -18 37 -12 0 -19 -7 -19
-19z"/>
<path d="M858 1399 c-35 -20 -11 -75 29 -67 22 4 29 43 13 64 -14 16 -19 17
-42 3z"/>
<path d="M592 1383 c4 -21 33 -25 33 -3 0 8 -8 16 -18 18 -14 3 -18 -1 -15
-15z"/>
<path d="M722 1391 c-19 -11 -11 -45 11 -49 9 -2 20 4 23 13 9 21 -16 47 -34
36z"/>
<path d="M4210 1347 c0 -19 10 -27 26 -20 21 8 17 33 -6 33 -11 0 -20 -6 -20
-13z"/>
<path d="M3909 1324 c-17 -21 0 -49 31 -49 27 0 46 25 37 49 -8 21 -51 21 -68
0z"/>
<path d="M4058 1308 c-8 -21 2 -38 22 -38 19 0 30 17 23 38 -3 6 -13 12 -23
12 -10 0 -20 -6 -22 -12z"/>
<path d="M921 1276 c-18 -22 3 -56 34 -56 18 0 26 7 31 24 3 14 3 30 -1 35 -9
16 -51 13 -64 -3z"/>
<path d="M667 1274 c-14 -14 -7 -35 11 -32 9 2 17 10 17 17 0 16 -18 25 -28
15z"/>
<path d="M786 1261 c-10 -16 6 -42 23 -39 9 2 17 13 19 26 3 16 -2 22 -17 22
-11 0 -22 -4 -25 -9z"/>
<path d="M3835 1224 c-19 -20 -16 -43 8 -58 37 -23 77 35 41 61 -23 17 -29 16
-49 -3z"/>
<path d="M4140 1220 c0 -15 5 -20 18 -18 9 2 17 10 17 18 0 8 -8 16 -17 18
-13 2 -18 -3 -18 -18z"/>
<path d="M3976 1184 c-3 -9 -4 -20 0 -25 14 -23 57 2 47 27 -7 19 -39 18 -47
-2z"/>
<path d="M1010 1175 c-15 -18 -10 -45 12 -59 26 -16 53 14 44 48 -7 29 -36 35
-56 11z"/>
<path d="M740 1140 c0 -15 5 -20 18 -18 9 2 17 10 17 18 0 8 -8 16 -17 18 -13
2 -18 -3 -18 -18z"/>
<path d="M874 1145 c-8 -20 3 -48 18 -43 6 2 16 12 22 21 8 13 7 20 -4 27 -21
14 -30 12 -36 -5z"/>
<path d="M3755 1127 c-10 -8 -16 -23 -13 -38 2 -19 9 -24 33 -24 25 0 31 4 33
27 4 34 -26 54 -53 35z"/>
<path d="M4054 1109 c-8 -14 11 -33 25 -25 16 10 13 36 -3 36 -8 0 -18 -5 -22
-11z"/>
<path d="M1102 1078 c-23 -23 -7 -68 24 -68 14 0 44 27 44 40 0 13 -30 40 -44
40 -6 0 -17 -5 -24 -12z"/>
<path d="M3893 1079 c-16 -16 -5 -39 17 -39 25 0 35 18 20 35 -15 18 -22 19
-37 4z"/>
<path d="M973 1043 c-7 -3 -13 -13 -13 -23 0 -19 17 -30 38 -23 6 3 12 13 12
23 0 19 -17 30 -37 23z"/>
<path d="M826 1031 c-3 -5 0 -14 8 -20 10 -8 16 -8 25 2 6 8 8 17 4 20 -9 10
-31 9 -37 -2z"/>
<path d="M3649 1016 c-9 -20 -9 -29 1 -41 28 -34 87 5 64 43 -18 28 -52 27
-65 -2z"/>
<path d="M3970 990 c0 -23 25 -27 33 -6 7 16 -1 26 -20 26 -7 0 -13 -9 -13
-20z"/>
<path d="M1196 978 c-20 -28 -4 -58 29 -58 29 0 45 41 25 65 -17 21 -36 19
-54 -7z"/>
<path d="M3794 965 c-4 -9 -2 -21 4 -27 15 -15 44 -1 40 19 -4 23 -36 29 -44
8z"/>
<path d="M3552 938 c-28 -28 -1 -75 37 -63 25 8 34 31 21 56 -12 21 -40 25
-58 7z"/>
<path d="M927 934 c-14 -15 -6 -34 14 -34 14 0 19 5 17 17 -3 18 -20 27 -31
17z"/>
<path d="M1064 925 c-4 -9 -2 -21 4 -27 15 -15 44 -1 40 19 -4 23 -36 29 -44
8z"/>
<path d="M1302 898 c-28 -28 -1 -75 37 -63 25 8 34 31 21 56 -12 21 -40 25
-58 7z"/>
<path d="M3873 894 c-9 -23 11 -38 26 -20 13 16 7 36 -10 36 -5 0 -12 -7 -16
-16z"/>
<path d="M3683 864 c-6 -17 14 -36 32 -31 6 2 11 13 13 25 3 17 -2 22 -18 22
-11 0 -23 -7 -27 -16z"/>
<path d="M3440 855 c-26 -32 13 -81 48 -59 34 22 22 74 -18 74 -10 0 -23 -7
-30 -15z"/>
<path d="M1183 843 c-7 -3 -13 -14 -13 -25 0 -14 6 -19 22 -16 13 2 24 10 26
19 3 18 -15 29 -35 22z"/>
<path d="M1027 834 c-14 -15 -6 -34 14 -34 14 0 19 5 17 17 -3 18 -20 27 -31
17z"/>
<path d="M1415 824 c-24 -24 -15 -58 16 -62 49 -6 64 44 20 67 -15 9 -23 7
-36 -5z"/>
<path d="M3771 796 c-12 -14 -5 -26 16 -26 15 0 18 26 4 34 -5 3 -14 0 -20 -8z"/>
<path d="M3343 789 c-25 -9 -30 -38 -11 -57 19 -19 46 -14 59 9 16 30 -16 61
-48 48z"/>
<path d="M3574 775 c-4 -9 -2 -21 4 -27 15 -15 44 -1 40 19 -4 23 -36 29 -44
8z"/>
<path d="M1284 745 c-4 -9 -2 -21 4 -27 15 -15 44 -1 40 19 -4 23 -36 29 -44
8z"/>
<path d="M1524 746 c-12 -31 0 -51 31 -51 27 0 30 3 30 30 0 25 -4 30 -28 33
-17 2 -29 -2 -33 -12z"/>
<path d="M1132 723 c2 -10 10 -18 18 -18 8 0 16 8 18 18 2 12 -3 17 -18 17
-15 0 -20 -5 -18 -17z"/>
<path d="M3212 718 c-28 -28 -1 -75 37 -63 11 3 23 15 26 26 12 38 -35 65 -63
37z"/>
<path d="M3655 711 c-8 -15 3 -31 21 -31 9 0 14 7 12 17 -4 20 -24 28 -33 14z"/>
<path d="M1655 697 c-10 -8 -16 -23 -13 -38 2 -19 9 -24 33 -24 25 0 31 4 33
27 4 34 -26 54 -53 35z"/>
<path d="M3454 695 c-4 -9 -2 -21 4 -27 15 -15 44 -1 40 19 -4 23 -36 29 -44
8z"/>
<path d="M1404 666 c-8 -21 3 -36 27 -36 15 0 20 6 17 22 -4 27 -35 37 -44 14z"/>
<path d="M3097 669 c-27 -15 -22 -57 7 -65 32 -8 46 2 46 31 0 29 -28 47 -53
34z"/>
<path d="M1250 640 c0 -11 6 -20 13 -20 19 0 27 10 20 26 -8 21 -33 17 -33 -6z"/>
<path d="M1770 635 c-20 -24 -3 -55 30 -55 20 0 31 6 35 20 8 25 -10 50 -35
50 -10 0 -23 -7 -30 -15z"/>
<path d="M3337 634 c-4 -4 -7 -16 -7 -26 0 -14 6 -19 23 -16 14 2 22 10 22 23
0 20 -25 32 -38 19z"/>
<path d="M3544 625 c-9 -22 5 -38 22 -24 18 15 18 25 -1 33 -9 3 -18 -1 -21
-9z"/>
<path d="M2962 618 c-18 -18 -14 -46 7 -58 25 -13 48 -4 56 21 12 38 -35 65
-63 37z"/>
<path d="M1534 595 c-4 -9 -2 -21 4 -27 15 -15 44 -1 40 19 -4 23 -36 29 -44
8z"/>
<path d="M1902 598 c-18 -18 -14 -46 7 -58 25 -13 48 -4 56 21 12 38 -35 65
-63 37z"/>
<path d="M2830 575 c-6 -8 -9 -23 -5 -35 9 -28 61 -28 70 0 8 25 -10 50 -35
50 -10 0 -23 -7 -30 -15z"/>
<path d="M1370 560 c0 -15 5 -20 18 -18 9 2 17 10 17 18 0 8 -8 16 -17 18 -13
2 -18 -3 -18 -18z"/>
<path d="M2032 568 c-25 -25 -6 -68 30 -68 9 0 22 9 28 20 22 40 -26 80 -58
48z"/>
<path d="M2706 557 c-36 -26 4 -84 42 -61 23 15 26 38 7 58 -20 19 -26 20 -49
3z"/>
<path d="M3202 548 c2 -15 10 -23 23 -23 30 0 27 39 -3 43 -20 3 -23 0 -20
-20z"/>
<path d="M2165 544 c-19 -20 -16 -43 8 -58 20 -13 50 2 55 26 3 16 -23 48 -38
48 -5 0 -16 -7 -25 -16z"/>
<path d="M3415 550 c-8 -14 3 -30 21 -30 8 0 14 9 14 20 0 21 -24 28 -35 10z"/>
<path d="M1664 535 c-4 -9 -2 -21 4 -27 15 -15 44 -1 40 19 -4 23 -36 29 -44
8z"/>
<path d="M2305 536 c-25 -18 -16 -60 14 -64 31 -5 54 23 41 48 -13 24 -35 31
-55 16z"/>
<path d="M2572 541 c-18 -11 -12 -51 10 -64 21 -14 48 7 48 38 0 30 -31 44
-58 26z"/>
<path d="M2430 525 c-23 -28 9 -72 45 -59 36 14 24 74 -15 74 -10 0 -23 -7
-30 -15z"/>
<path d="M3068 508 c-8 -21 2 -38 22 -38 19 0 34 25 24 41 -8 13 -41 11 -46
-3z"/>
<path d="M1494 499 c-8 -14 11 -33 25 -25 16 10 13 36 -3 36 -8 0 -18 -5 -22
-11z"/>
<path d="M1797 486 c-6 -15 11 -36 29 -36 14 0 23 20 17 38 -6 16 -40 15 -46
-2z"/>
<path d="M3292 473 c2 -10 10 -18 18 -18 8 0 16 8 18 18 2 12 -3 17 -18 17
-15 0 -20 -5 -18 -17z"/>
<path d="M2943 473 c-7 -3 -13 -13 -13 -23 0 -19 17 -30 38 -23 6 3 12 13 12
23 0 19 -17 30 -37 23z"/>
<path d="M1936 451 c-9 -13 4 -41 18 -41 18 0 35 21 29 36 -6 16 -39 19 -47 5z"/>
<path d="M1622 433 c2 -10 10 -18 18 -18 8 0 16 8 18 18 2 12 -3 17 -18 17
-15 0 -20 -5 -18 -17z"/>
<path d="M2794 425 c-4 -9 -2 -21 4 -27 15 -15 44 -1 40 19 -4 23 -36 29 -44
8z"/>
<path d="M3167 434 c-14 -14 -7 -35 11 -32 9 2 17 10 17 17 0 16 -18 25 -28
15z"/>
<path d="M2077 417 c-8 -20 9 -41 27 -34 23 9 21 47 -3 47 -10 0 -21 -6 -24
-13z"/>
<path d="M2657 414 c-4 -4 -7 -16 -7 -26 0 -14 6 -19 23 -16 14 2 22 10 22 23
0 20 -25 32 -38 19z"/>
<path d="M2222 388 c4 -30 43 -33 43 -3 0 13 -8 21 -23 23 -20 3 -23 0 -20
-20z"/>
<path d="M2511 396 c-16 -19 -6 -36 20 -36 15 0 20 6 17 22 -4 27 -21 33 -37
14z"/>
<path d="M1760 380 c0 -23 25 -27 33 -6 7 16 -1 26 -20 26 -7 0 -13 -9 -13
-20z"/>
<path d="M2367 393 c-16 -15 -6 -33 18 -33 18 0 25 5 25 20 0 20 -28 28 -43
13z"/>
<path d="M3025 380 c-8 -14 3 -30 21 -30 8 0 14 9 14 20 0 21 -24 28 -35 10z"/>
<path d="M1894 349 c-8 -14 11 -33 25 -25 16 10 13 36 -3 36 -8 0 -18 -5 -22
-11z"/>
<path d="M2887 344 c-9 -9 4 -34 18 -34 14 0 27 25 18 34 -4 3 -12 6 -18 6 -6
0 -14 -3 -18 -6z"/>
<path d="M2035 320 c-8 -14 3 -30 21 -30 8 0 14 9 14 20 0 21 -24 28 -35 10z"/>
<path d="M2744 309 c-7 -12 15 -31 28 -23 4 3 8 12 8 20 0 17 -26 19 -36 3z"/>
<path d="M2175 300 c-8 -14 3 -30 21 -30 8 0 14 9 14 20 0 21 -24 28 -35 10z"/>
<path d="M2320 280 c0 -15 5 -20 18 -18 9 2 17 10 17 18 0 8 -8 16 -17 18 -13
2 -18 -3 -18 -18z"/>
<path d="M2467 294 c-14 -15 -6 -34 14 -34 14 0 19 5 17 17 -3 18 -20 27 -31
17z"/>
<path d="M2600 286 c0 -15 24 -28 34 -19 13 14 5 33 -14 33 -11 0 -20 -6 -20
-14z"/>
</g>
</svg>
